**********************
PowerShell transcript start
Start time: 20230516000954
**********************
Transcript started, output file is ./logs/hevcnvenc_multipass_181223.mov.log
DEBUG Invoke-Process
File: ffmpeg
Arg: -y -nostats -hwaccel nvdec -i 181223.mov -an -c:v hevc_nvenc -preset:v p7 -profile:v main10 -rc:v constqp -rc-lookahead 0 -spatial-aq 0 -temporal-aq 0 -weighted_pred 0 -init_qpI 22 -init_qpP 22 -init_qpB 22 -b_ref_mode 1 -dpb_size 4 -multipass 0 -g 60 -bf 3 -pix_fmt yuv420p10le -color_range tv -color_primaries bt709 -color_trc bt709 -colorspace bt709 -movflags +faststart 181223.mov.mp4
ArgList:

ffmpeg version N-109952-g52a0852ae6-20230302 Copyright (c) 2000-2023 the FFmpeg developers
  built with gcc 12.2.0 (crosstool-NG 1.25.0.90_cf9beb1)
  configuration: --prefix=/ffbuild/prefix --pkg-config-flags=--static --pkg-config=pkg-config --cross-prefix=x86_64-w64-mingw32- --arch=x86_64 --target-os=mingw32 --enable-nonfree --enable-gpl --enable-version3 --disable-debug --disable-w32threads --enable-pthreads --enable-iconv --enable-libxml2 --enable-zlib --enable-libfreetype --enable-libfribidi --enable-gmp --enable-lzma --enable-fontconfig --enable-libvorbis --enable-opencl --disable-libpulse --enable-libvmaf --disable-libxcb --disable-xlib --enable-amf --enable-libaom --enable-libaribb24 --enable-avisynth --enable-chromaprint --enable-libdav1d --enable-libdavs2 --enable-libfdk-aac --enable-ffnvcodec --enable-cuda-llvm --enable-frei0r --enable-libgme --enable-libkvazaar --enable-libass --enable-libbluray --enable-libjxl --enable-libmp3lame --enable-libopus --enable-librist --enable-libssh --enable-libtheora --enable-libvpx --enable-libwebp --enable-lv2 --disable-libmfx --enable-libvpl --enable-openal --enable-libopencore-amrnb --enable-libopencore-amrwb --enable-libopenh264 --enable-libopenjpeg --enable-libopenmpt --enable-librav1e --enable-librubberband --enable-schannel --enable-sdl2 --enable-libsoxr --enable-libsrt --enable-libsvtav1 --enable-libtwolame --enable-libuavs3d --disable-libdrm --disable-vaapi --enable-libvidstab --enable-vulkan --enable-libshaderc --enable-libplacebo --enable-libx264 --enable-libx265 --enable-libxavs2 --enable-libxvid --enable-libzimg --enable-libzvbi --extra-cflags=-DLIBTWOLAME_STATIC --extra-cxxflags= --extra-ldflags=-pthread --extra-ldexeflags= --extra-libs=-lgomp --extra-version=20230302
  libavutil      58.  3.100 / 58.  3.100
  libavcodec     60.  5.100 / 60.  5.100
  libavformat    60.  4.100 / 60.  4.100
  libavdevice    60.  2.100 / 60.  2.100
  libavfilter     9.  4.100 /  9.  4.100
  libswscale      7.  2.100 /  7.  2.100
  libswresample   4. 11.100 /  4. 11.100
  libpostproc    57.  2.100 / 57.  2.100
Input #0, mov,mp4,m4a,3gp,3g2,mj2, from '181223.mov':
  Metadata:
    major_brand     : qt  
    compatible_brands: qt  
    encoder         : Lavf60.4.100
  Duration: 00:01:22.02, start: 0.000000, bitrate: 45174 kb/s
  Stream #0:0[0x1]: Video: dnxhd (DNXHR LB) (AVdh / 0x68645641), yuv422p(tv, bt709), 1920x1080, 45174 kb/s, SAR 1:1 DAR 16:9, 29.97 fps, 29.97 tbr, 30k tbn (default)
    Metadata:
      handler_name    : VideoHandler
      vendor_id       : FFMP
      encoder         : Lavc60.5.100 dnxhd
    minor_version   : 512
Stream mapping:
  Stream #0:0 -> #0:0 (dnxhd (native) -> hevc (hevc_nvenc))
Press [q] to stop, [?] for help
Incompatible pixel format 'yuv420p10le' for codec 'hevc_nvenc', auto-selecting format 'p010le'
Output #0, mp4, to '181223.mov.mp4':
  Metadata:
    major_brand     : qt  
    minor_version   : 512
    compatible_brands: qt  
    encoder         : Lavf60.4.100
  Stream #0:0: Video: hevc (Main 10) (hev1 / 0x31766568), p010le(tv, bt709, progressive), 1920x1080 [SAR 1:1 DAR 16:9], q=2-31, 2000 kb/s, 29.97 fps, 30k tbn (default)
    Metadata:
      handler_name    : VideoHandler
      vendor_id       : FFMP
      encoder         : Lavc60.5.100 hevc_nvenc
    Side data:
      cpb: bitrate max/min/avg: 0/0/2000000 buffer size: 4000000 vbv_delay: N/A
[mp4 @ 00000167d54c7b40] Starting second pass: moving the moov atom to the beginning of the file
frame= 2458 fps=120 q=21.0 Lsize=   91904kB time=00:01:21.88 bitrate=9194.7kbits/s speed=3.99x    
video:91882kB audio:0kB subtitle:0kB other streams:0kB global headers:0kB muxing overhead: 0.023963%
DEBUG ExitCode: 0
DEBUG Invoke-Process
File: ffmpeg
Arg: -y -nostats -i 181223.mov.mp4 -i 181223.mov -filter_complex libvmaf=model=version=vmaf_v0.6.1neg\\:name=vmaf_neg -an -f null -
ArgList:

ffmpeg version N-109952-g52a0852ae6-20230302 Copyright (c) 2000-2023 the FFmpeg developers
  built with gcc 12.2.0 (crosstool-NG 1.25.0.90_cf9beb1)
  configuration: --prefix=/ffbuild/prefix --pkg-config-flags=--static --pkg-config=pkg-config --cross-prefix=x86_64-w64-mingw32- --arch=x86_64 --target-os=mingw32 --enable-nonfree --enable-gpl --enable-version3 --disable-debug --disable-w32threads --enable-pthreads --enable-iconv --enable-libxml2 --enable-zlib --enable-libfreetype --enable-libfribidi --enable-gmp --enable-lzma --enable-fontconfig --enable-libvorbis --enable-opencl --disable-libpulse --enable-libvmaf --disable-libxcb --disable-xlib --enable-amf --enable-libaom --enable-libaribb24 --enable-avisynth --enable-chromaprint --enable-libdav1d --enable-libdavs2 --enable-libfdk-aac --enable-ffnvcodec --enable-cuda-llvm --enable-frei0r --enable-libgme --enable-libkvazaar --enable-libass --enable-libbluray --enable-libjxl --enable-libmp3lame --enable-libopus --enable-librist --enable-libssh --enable-libtheora --enable-libvpx --enable-libwebp --enable-lv2 --disable-libmfx --enable-libvpl --enable-openal --enable-libopencore-amrnb --enable-libopencore-amrwb --enable-libopenh264 --enable-libopenjpeg --enable-libopenmpt --enable-librav1e --enable-librubberband --enable-schannel --enable-sdl2 --enable-libsoxr --enable-libsrt --enable-libsvtav1 --enable-libtwolame --enable-libuavs3d --disable-libdrm --disable-vaapi --enable-libvidstab --enable-vulkan --enable-libshaderc --enable-libplacebo --enable-libx264 --enable-libx265 --enable-libxavs2 --enable-libxvid --enable-libzimg --enable-libzvbi --extra-cflags=-DLIBTWOLAME_STATIC --extra-cxxflags= --extra-ldflags=-pthread --extra-ldexeflags= --extra-libs=-lgomp --extra-version=20230302
  libavutil      58.  3.100 / 58.  3.100
  libavcodec     60.  5.100 / 60.  5.100
  libavformat    60.  4.100 / 60.  4.100
  libavdevice    60.  2.100 / 60.  2.100
  libavfilter     9.  4.100 /  9.  4.100
  libswscale      7.  2.100 /  7.  2.100
  libswresample   4. 11.100 /  4. 11.100
  libpostproc    57.  2.100 / 57.  2.100
Input #0, mov,mp4,m4a,3gp,3g2,mj2, from '181223.mov.mp4':
  Metadata:
    minor_version   : 512
    compatible_brands: isomiso2mp41
    encoder         : Lavf60.4.100
    major_brand     : isom
  Duration: 00:01:22.02, start: 0.000000, bitrate: 9179 kb/s
  Stream #0:0[0x1](und): Video: hevc (Main 10) (hev1 / 0x31766568), yuv420p10le(tv, bt709, progressive), 1920x1080 [SAR 1:1 DAR 16:9], 9177 kb/s, 29.97 fps, 29.97 tbr, 30k tbn (default)
    Metadata:
      handler_name    : VideoHandler
      vendor_id       : [0][0][0][0]
      encoder         : Lavc60.5.100 hevc_nvenc
Input #1, mov,mp4,m4a,3gp,3g2,mj2, from '181223.mov':
  Metadata:
    minor_version   : 512
    compatible_brands: qt  
    major_brand     : qt  
    encoder         : Lavf60.4.100
  Duration: 00:01:22.02, start: 0.000000, bitrate: 45174 kb/s
  Stream #1:0[0x1]: Video: dnxhd (DNXHR LB) (AVdh / 0x68645641), yuv422p(tv, bt709), 1920x1080, 45174 kb/s, SAR 1:1 DAR 16:9, 29.97 fps, 29.97 tbr, 30k tbn (default)
    Metadata:
      handler_name    : VideoHandler
      vendor_id       : FFMP
      encoder         : Lavc60.5.100 dnxhd
Stream mapping:
  Stream #0:0 (hevc) -> libvmaf
  Stream #1:0 (dnxhd) -> libvmaf
  libvmaf:default -> Stream #0:0 (wrapped_avframe)
Press [q] to stop, [?] for help
Output #0, null, to 'pipe:':
  Metadata:
    major_brand     : isom
    compatible_brands: isomiso2mp41
    encoder         : Lavf60.4.100
  Stream #0:0: Video: wrapped_avframe, yuv420p10le(tv, bt709, progressive), 1920x1080 [SAR 1:1 DAR 16:9], q=2-31, 200 kb/s, 29.97 fps, 29.97 tbn
    Metadata:
      encoder         : Lavc60.5.100 wrapped_avframe
    minor_version   : 512
frame= 2458 fps=6.8 q=-0.0 Lsize=N/A time=00:01:21.98 bitrate=N/A speed=0.227x    
video:1152kB audio:0kB subtitle:0kB other streams:0kB global headers:0kB muxing overhead: unknown
[Parsed_libvmaf_0 @ 000001cf2d8254c0] VMAF score: 95.857880
DEBUG ExitCode: 0
DEBUG Invoke-Process
File: ffmpeg
Arg: -y -nostats -hwaccel nvdec -i 181223.mov -an -c:v hevc_nvenc -preset:v p7 -profile:v main10 -rc:v constqp -rc-lookahead 0 -spatial-aq 0 -temporal-aq 0 -weighted_pred 0 -init_qpI 22 -init_qpP 22 -init_qpB 22 -b_ref_mode 1 -dpb_size 4 -multipass 1 -g 60 -bf 3 -pix_fmt yuv420p10le -color_range tv -color_primaries bt709 -color_trc bt709 -colorspace bt709 -movflags +faststart 181223.mov.mp4
ArgList:

ffmpeg version N-109952-g52a0852ae6-20230302 Copyright (c) 2000-2023 the FFmpeg developers
  built with gcc 12.2.0 (crosstool-NG 1.25.0.90_cf9beb1)
  configuration: --prefix=/ffbuild/prefix --pkg-config-flags=--static --pkg-config=pkg-config --cross-prefix=x86_64-w64-mingw32- --arch=x86_64 --target-os=mingw32 --enable-nonfree --enable-gpl --enable-version3 --disable-debug --disable-w32threads --enable-pthreads --enable-iconv --enable-libxml2 --enable-zlib --enable-libfreetype --enable-libfribidi --enable-gmp --enable-lzma --enable-fontconfig --enable-libvorbis --enable-opencl --disable-libpulse --enable-libvmaf --disable-libxcb --disable-xlib --enable-amf --enable-libaom --enable-libaribb24 --enable-avisynth --enable-chromaprint --enable-libdav1d --enable-libdavs2 --enable-libfdk-aac --enable-ffnvcodec --enable-cuda-llvm --enable-frei0r --enable-libgme --enable-libkvazaar --enable-libass --enable-libbluray --enable-libjxl --enable-libmp3lame --enable-libopus --enable-librist --enable-libssh --enable-libtheora --enable-libvpx --enable-libwebp --enable-lv2 --disable-libmfx --enable-libvpl --enable-openal --enable-libopencore-amrnb --enable-libopencore-amrwb --enable-libopenh264 --enable-libopenjpeg --enable-libopenmpt --enable-librav1e --enable-librubberband --enable-schannel --enable-sdl2 --enable-libsoxr --enable-libsrt --enable-libsvtav1 --enable-libtwolame --enable-libuavs3d --disable-libdrm --disable-vaapi --enable-libvidstab --enable-vulkan --enable-libshaderc --enable-libplacebo --enable-libx264 --enable-libx265 --enable-libxavs2 --enable-libxvid --enable-libzimg --enable-libzvbi --extra-cflags=-DLIBTWOLAME_STATIC --extra-cxxflags= --extra-ldflags=-pthread --extra-ldexeflags= --extra-libs=-lgomp --extra-version=20230302
  libavutil      58.  3.100 / 58.  3.100
  libavcodec     60.  5.100 / 60.  5.100
  libavformat    60.  4.100 / 60.  4.100
  libavdevice    60.  2.100 / 60.  2.100
  libavfilter     9.  4.100 /  9.  4.100
  libswscale      7.  2.100 /  7.  2.100
  libswresample   4. 11.100 /  4. 11.100
  libpostproc    57.  2.100 / 57.  2.100
Input #0, mov,mp4,m4a,3gp,3g2,mj2, from '181223.mov':
  Metadata:
    major_brand     : qt  
    minor_version   : 512
    compatible_brands: qt  
    encoder         : Lavf60.4.100
  Duration: 00:01:22.02, start: 0.000000, bitrate: 45174 kb/s
  Stream #0:0[0x1]: Video: dnxhd (DNXHR LB) (AVdh / 0x68645641), yuv422p(tv, bt709), 1920x1080, 45174 kb/s, SAR 1:1 DAR 16:9, 29.97 fps, 29.97 tbr, 30k tbn (default)
      handler_name    : VideoHandler
      vendor_id       : FFMP
      encoder         : Lavc60.5.100 dnxhd
    Metadata:
Stream mapping:
  Stream #0:0 -> #0:0 (dnxhd (native) -> hevc (hevc_nvenc))
Press [q] to stop, [?] for help
Incompatible pixel format 'yuv420p10le' for codec 'hevc_nvenc', auto-selecting format 'p010le'
Output #0, mp4, to '181223.mov.mp4':
    major_brand     : qt  
    minor_version   : 512
    compatible_brands: qt  
    encoder         : Lavf60.4.100
  Stream #0:0: Video: hevc (Main 10) (hev1 / 0x31766568), p010le(tv, bt709, progressive), 1920x1080 [SAR 1:1 DAR 16:9], q=2-31, 2000 kb/s, 29.97 fps, 30k tbn (default)
    Metadata:
  Metadata:
      handler_name    : VideoHandler
      vendor_id       : FFMP
      encoder         : Lavc60.5.100 hevc_nvenc
    Side data:
      cpb: bitrate max/min/avg: 0/0/2000000 buffer size: 4000000 vbv_delay: N/A
[mp4 @ 000001b3727a7b40] Starting second pass: moving the moov atom to the beginning of the file
frame= 2458 fps=121 q=21.0 Lsize=   91966kB time=00:01:21.88 bitrate=9200.9kbits/s speed=4.02x    
video:91944kB audio:0kB subtitle:0kB other streams:0kB global headers:0kB muxing overhead: 0.023959%
DEBUG ExitCode: 0
DEBUG Invoke-Process
File: ffmpeg
Arg: -y -nostats -i 181223.mov.mp4 -i 181223.mov -filter_complex libvmaf=model=version=vmaf_v0.6.1neg\\:name=vmaf_neg -an -f null -
ArgList:

ffmpeg version N-109952-g52a0852ae6-20230302 Copyright (c) 2000-2023 the FFmpeg developers
  built with gcc 12.2.0 (crosstool-NG 1.25.0.90_cf9beb1)
  configuration: --prefix=/ffbuild/prefix --pkg-config-flags=--static --pkg-config=pkg-config --cross-prefix=x86_64-w64-mingw32- --arch=x86_64 --target-os=mingw32 --enable-nonfree --enable-gpl --enable-version3 --disable-debug --disable-w32threads --enable-pthreads --enable-iconv --enable-libxml2 --enable-zlib --enable-libfreetype --enable-libfribidi --enable-gmp --enable-lzma --enable-fontconfig --enable-libvorbis --enable-opencl --disable-libpulse --enable-libvmaf --disable-libxcb --disable-xlib --enable-amf --enable-libaom --enable-libaribb24 --enable-avisynth --enable-chromaprint --enable-libdav1d --enable-libdavs2 --enable-libfdk-aac --enable-ffnvcodec --enable-cuda-llvm --enable-frei0r --enable-libgme --enable-libkvazaar --enable-libass --enable-libbluray --enable-libjxl --enable-libmp3lame --enable-libopus --enable-librist --enable-libssh --enable-libtheora --enable-libvpx --enable-libwebp --enable-lv2 --disable-libmfx --enable-libvpl --enable-openal --enable-libopencore-amrnb --enable-libopencore-amrwb --enable-libopenh264 --enable-libopenjpeg --enable-libopenmpt --enable-librav1e --enable-librubberband --enable-schannel --enable-sdl2 --enable-libsoxr --enable-libsrt --enable-libsvtav1 --enable-libtwolame --enable-libuavs3d --disable-libdrm --disable-vaapi --enable-libvidstab --enable-vulkan --enable-libshaderc --enable-libplacebo --enable-libx264 --enable-libx265 --enable-libxavs2 --enable-libxvid --enable-libzimg --enable-libzvbi --extra-cflags=-DLIBTWOLAME_STATIC --extra-cxxflags= --extra-ldflags=-pthread --extra-ldexeflags= --extra-libs=-lgomp --extra-version=20230302
  libavutil      58.  3.100 / 58.  3.100
  libavcodec     60.  5.100 / 60.  5.100
  libavformat    60.  4.100 / 60.  4.100
  libavdevice    60.  2.100 / 60.  2.100
  libavfilter     9.  4.100 /  9.  4.100
  libswscale      7.  2.100 /  7.  2.100
  libswresample   4. 11.100 /  4. 11.100
  libpostproc    57.  2.100 / 57.  2.100
Input #0, mov,mp4,m4a,3gp,3g2,mj2, from '181223.mov.mp4':
    major_brand     : isom
    minor_version   : 512
    compatible_brands: isomiso2mp41
    encoder         : Lavf60.4.100
  Duration: 00:01:22.02, start: 0.000000, bitrate: 9185 kb/s
  Stream #0:0[0x1](und): Video: hevc (Main 10) (hev1 / 0x31766568), yuv420p10le(tv, bt709, progressive), 1920x1080 [SAR 1:1 DAR 16:9], 9183 kb/s, 29.97 fps, 29.97 tbr, 30k tbn (default)
    Metadata:
      handler_name    : VideoHandler
      vendor_id       : [0][0][0][0]
      encoder         : Lavc60.5.100 hevc_nvenc
  Metadata:
Input #1, mov,mp4,m4a,3gp,3g2,mj2, from '181223.mov':
  Metadata:
    major_brand     : qt  
    minor_version   : 512
    compatible_brands: qt  
    encoder         : Lavf60.4.100
  Duration: 00:01:22.02, start: 0.000000, bitrate: 45174 kb/s
  Stream #1:0[0x1]: Video: dnxhd (DNXHR LB) (AVdh / 0x68645641), yuv422p(tv, bt709), 1920x1080, 45174 kb/s, SAR 1:1 DAR 16:9, 29.97 fps, 29.97 tbr, 30k tbn (default)
    Metadata:
      handler_name    : VideoHandler
      encoder         : Lavc60.5.100 dnxhd
      vendor_id       : FFMP
Stream mapping:
  Stream #0:0 (hevc) -> libvmaf
  libvmaf:default -> Stream #0:0 (wrapped_avframe)
Press [q] to stop, [?] for help
  Stream #1:0 (dnxhd) -> libvmaf
Output #0, null, to 'pipe:':
  Metadata:
    major_brand     : isom
    minor_version   : 512
    compatible_brands: isomiso2mp41
    encoder         : Lavf60.4.100
  Stream #0:0: Video: wrapped_avframe, yuv420p10le(tv, bt709, progressive), 1920x1080 [SAR 1:1 DAR 16:9], q=2-31, 200 kb/s, 29.97 fps, 29.97 tbn
    Metadata:
      encoder         : Lavc60.5.100 wrapped_avframe
frame= 2458 fps=7.8 q=-0.0 Lsize=N/A time=00:01:21.98 bitrate=N/A speed=0.26x    
video:1152kB audio:0kB subtitle:0kB other streams:0kB global headers:0kB muxing overhead: unknown
[Parsed_libvmaf_0 @ 0000026e87fc54c0] VMAF score: 95.855786
DEBUG ExitCode: 0
DEBUG Invoke-Process
File: ffmpeg
Arg: -y -nostats -hwaccel nvdec -i 181223.mov -an -c:v hevc_nvenc -preset:v p7 -profile:v main10 -rc:v constqp -rc-lookahead 0 -spatial-aq 0 -temporal-aq 0 -weighted_pred 0 -init_qpI 22 -init_qpP 22 -init_qpB 22 -b_ref_mode 1 -dpb_size 4 -multipass 2 -g 60 -bf 3 -pix_fmt yuv420p10le -color_range tv -color_primaries bt709 -color_trc bt709 -colorspace bt709 -movflags +faststart 181223.mov.mp4
ArgList:

ffmpeg version N-109952-g52a0852ae6-20230302 Copyright (c) 2000-2023 the FFmpeg developers
  built with gcc 12.2.0 (crosstool-NG 1.25.0.90_cf9beb1)
  configuration: --prefix=/ffbuild/prefix --pkg-config-flags=--static --pkg-config=pkg-config --cross-prefix=x86_64-w64-mingw32- --arch=x86_64 --target-os=mingw32 --enable-nonfree --enable-gpl --enable-version3 --disable-debug --disable-w32threads --enable-pthreads --enable-iconv --enable-libxml2 --enable-zlib --enable-libfreetype --enable-libfribidi --enable-gmp --enable-lzma --enable-fontconfig --enable-libvorbis --enable-opencl --disable-libpulse --enable-libvmaf --disable-libxcb --disable-xlib --enable-amf --enable-libaom --enable-libaribb24 --enable-avisynth --enable-chromaprint --enable-libdav1d --enable-libdavs2 --enable-libfdk-aac --enable-ffnvcodec --enable-cuda-llvm --enable-frei0r --enable-libgme --enable-libkvazaar --enable-libass --enable-libbluray --enable-libjxl --enable-libmp3lame --enable-libopus --enable-librist --enable-libssh --enable-libtheora --enable-libvpx --enable-libwebp --enable-lv2 --disable-libmfx --enable-libvpl --enable-openal --enable-libopencore-amrnb --enable-libopencore-amrwb --enable-libopenh264 --enable-libopenjpeg --enable-libopenmpt --enable-librav1e --enable-librubberband --enable-schannel --enable-sdl2 --enable-libsoxr --enable-libsrt --enable-libsvtav1 --enable-libtwolame --enable-libuavs3d --disable-libdrm --disable-vaapi --enable-libvidstab --enable-vulkan --enable-libshaderc --enable-libplacebo --enable-libx264 --enable-libx265 --enable-libxavs2 --enable-libxvid --enable-libzimg --enable-libzvbi --extra-cflags=-DLIBTWOLAME_STATIC --extra-cxxflags= --extra-ldflags=-pthread --extra-ldexeflags= --extra-libs=-lgomp --extra-version=20230302
  libavutil      58.  3.100 / 58.  3.100
  libavcodec     60.  5.100 / 60.  5.100
  libavdevice    60.  2.100 / 60.  2.100
  libavfilter     9.  4.100 /  9.  4.100
  libswscale      7.  2.100 /  7.  2.100
  libswresample   4. 11.100 /  4. 11.100
  libpostproc    57.  2.100 / 57.  2.100
  libavformat    60.  4.100 / 60.  4.100
Input #0, mov,mp4,m4a,3gp,3g2,mj2, from '181223.mov':
    major_brand     : qt  
    minor_version   : 512
    compatible_brands: qt  
    encoder         : Lavf60.4.100
  Duration: 00:01:22.02, start: 0.000000, bitrate: 45174 kb/s
  Stream #0:0[0x1]: Video: dnxhd (DNXHR LB) (AVdh / 0x68645641), yuv422p(tv, bt709), 1920x1080, 45174 kb/s, SAR 1:1 DAR 16:9, 29.97 fps, 29.97 tbr, 30k tbn (default)
    Metadata:
      handler_name    : VideoHandler
      vendor_id       : FFMP
      encoder         : Lavc60.5.100 dnxhd
  Metadata:
Stream mapping:
  Stream #0:0 -> #0:0 (dnxhd (native) -> hevc (hevc_nvenc))
Press [q] to stop, [?] for help
Incompatible pixel format 'yuv420p10le' for codec 'hevc_nvenc', auto-selecting format 'p010le'
Output #0, mp4, to '181223.mov.mp4':
  Metadata:
    major_brand     : qt  
    compatible_brands: qt  
    encoder         : Lavf60.4.100
  Stream #0:0: Video: hevc (Main 10) (hev1 / 0x31766568), p010le(tv, bt709, progressive), 1920x1080 [SAR 1:1 DAR 16:9], q=2-31, 2000 kb/s, 29.97 fps, 30k tbn (default)
    Metadata:
      handler_name    : VideoHandler
      vendor_id       : FFMP
      encoder         : Lavc60.5.100 hevc_nvenc
    Side data:
    minor_version   : 512
      cpb: bitrate max/min/avg: 0/0/2000000 buffer size: 4000000 vbv_delay: N/A
[mp4 @ 0000022f10e57b40] Starting second pass: moving the moov atom to the beginning of the file
frame= 2458 fps= 87 q=21.0 Lsize=   91892kB time=00:01:21.88 bitrate=9193.5kbits/s speed=2.89x    
video:91870kB audio:0kB subtitle:0kB other streams:0kB global headers:0kB muxing overhead: 0.024004%
DEBUG ExitCode: 0
DEBUG Invoke-Process
File: ffmpeg
Arg: -y -nostats -i 181223.mov.mp4 -i 181223.mov -filter_complex libvmaf=model=version=vmaf_v0.6.1neg\\:name=vmaf_neg -an -f null -
ArgList:

ffmpeg version N-109952-g52a0852ae6-20230302 Copyright (c) 2000-2023 the FFmpeg developers
  built with gcc 12.2.0 (crosstool-NG 1.25.0.90_cf9beb1)
  configuration: --prefix=/ffbuild/prefix --pkg-config-flags=--static --pkg-config=pkg-config --cross-prefix=x86_64-w64-mingw32- --arch=x86_64 --target-os=mingw32 --enable-nonfree --enable-gpl --enable-version3 --disable-debug --disable-w32threads --enable-pthreads --enable-iconv --enable-libxml2 --enable-zlib --enable-libfreetype --enable-libfribidi --enable-gmp --enable-lzma --enable-fontconfig --enable-libvorbis --enable-opencl --disable-libpulse --enable-libvmaf --disable-libxcb --disable-xlib --enable-amf --enable-libaom --enable-libaribb24 --enable-avisynth --enable-chromaprint --enable-libdav1d --enable-libdavs2 --enable-libfdk-aac --enable-ffnvcodec --enable-cuda-llvm --enable-frei0r --enable-libgme --enable-libkvazaar --enable-libass --enable-libbluray --enable-libjxl --enable-libmp3lame --enable-libopus --enable-librist --enable-libssh --enable-libtheora --enable-libvpx --enable-libwebp --enable-lv2 --disable-libmfx --enable-libvpl --enable-openal --enable-libopencore-amrnb --enable-libopencore-amrwb --enable-libopenh264 --enable-libopenjpeg --enable-libopenmpt --enable-librav1e --enable-librubberband --enable-schannel --enable-sdl2 --enable-libsoxr --enable-libsrt --enable-libsvtav1 --enable-libtwolame --enable-libuavs3d --disable-libdrm --disable-vaapi --enable-libvidstab --enable-vulkan --enable-libshaderc --enable-libplacebo --enable-libx264 --enable-libx265 --enable-libxavs2 --enable-libxvid --enable-libzimg --enable-libzvbi --extra-cflags=-DLIBTWOLAME_STATIC --extra-cxxflags= --extra-ldflags=-pthread --extra-ldexeflags= --extra-libs=-lgomp --extra-version=20230302
  libavutil      58.  3.100 / 58.  3.100
  libavcodec     60.  5.100 / 60.  5.100
  libavformat    60.  4.100 / 60.  4.100
  libavdevice    60.  2.100 / 60.  2.100
  libavfilter     9.  4.100 /  9.  4.100
  libswscale      7.  2.100 /  7.  2.100
  libswresample   4. 11.100 /  4. 11.100
  libpostproc    57.  2.100 / 57.  2.100
Input #0, mov,mp4,m4a,3gp,3g2,mj2, from '181223.mov.mp4':
  Metadata:
    major_brand     : isom
    minor_version   : 512
    compatible_brands: isomiso2mp41
    encoder         : Lavf60.4.100
  Duration: 00:01:22.02, start: 0.000000, bitrate: 9178 kb/s
  Stream #0:0[0x1](und): Video: hevc (Main 10) (hev1 / 0x31766568), yuv420p10le(tv, bt709, progressive), 1920x1080 [SAR 1:1 DAR 16:9], 9176 kb/s, 29.97 fps, 29.97 tbr, 30k tbn (default)
    Metadata:
      handler_name    : VideoHandler
      vendor_id       : [0][0][0][0]
      encoder         : Lavc60.5.100 hevc_nvenc
Input #1, mov,mp4,m4a,3gp,3g2,mj2, from '181223.mov':
  Metadata:
    major_brand     : qt  
    minor_version   : 512
    compatible_brands: qt  
    encoder         : Lavf60.4.100
  Duration: 00:01:22.02, start: 0.000000, bitrate: 45174 kb/s
  Stream #1:0[0x1]: Video: dnxhd (DNXHR LB) (AVdh / 0x68645641), yuv422p(tv, bt709), 1920x1080, 45174 kb/s, SAR 1:1 DAR 16:9, 29.97 fps, 29.97 tbr, 30k tbn (default)
    Metadata:
      handler_name    : VideoHandler
      vendor_id       : FFMP
      encoder         : Lavc60.5.100 dnxhd
Stream mapping:
  Stream #0:0 (hevc) -> libvmaf
  Stream #1:0 (dnxhd) -> libvmaf
  libvmaf:default -> Stream #0:0 (wrapped_avframe)
Press [q] to stop, [?] for help
Output #0, null, to 'pipe:':
  Metadata:
    major_brand     : isom
    minor_version   : 512
    compatible_brands: isomiso2mp41
    encoder         : Lavf60.4.100
    Metadata:
  Stream #0:0: Video: wrapped_avframe, yuv420p10le(tv, bt709, progressive), 1920x1080 [SAR 1:1 DAR 16:9], q=2-31, 200 kb/s, 29.97 fps, 29.97 tbn
      encoder         : Lavc60.5.100 wrapped_avframe
frame= 2458 fps=7.9 q=-0.0 Lsize=N/A time=00:01:21.98 bitrate=N/A speed=0.263x    
video:1152kB audio:0kB subtitle:0kB other streams:0kB global headers:0kB muxing overhead: unknown
[Parsed_libvmaf_0 @ 0000012026369c40] VMAF score: 95.856048
DEBUG ExitCode: 0
**********************
PowerShell transcript end
End time: 20230516002733
**********************
